<?xml version="1.0" standalone="no"?>
<!DOCTYPE svg PUBLIC "-//W3C//DTD SVG 20010904//EN"
 "http://www.w3.org/TR/2001/REC-SVG-20010904/DTD/svg10.dtd">
<svg version="1.0" xmlns="http://www.w3.org/2000/svg"
 width="600.000000pt" height="171.000000pt" viewBox="0 0 600.000000 171.000000"
 preserveAspectRatio="xMidYMid meet">
<metadata>
Created by potrace 1.16, written by Peter Selinger 2001-2019
</metadata>
<g transform="translate(0.000000,171.000000) scale(0.100000,-0.100000)"
fill="#000000" stroke="none">
<path d="M2115 1696 c-35 -12 -123 -33 -207 -50 -21 -5 -42 -32 -104 -133 -43
-71 -91 -147 -107 -171 -16 -24 -27 -46 -24 -49 5 -4 73 46 287 212 43 33 115
89 161 124 46 35 88 68 94 73 14 12 -54 8 -100 -6z"/>
<path d="M2280 1676 c-20 -20 -301 -225 -314 -229 -6 -3 -8 -8 -4 -12 5 -5 34
0 65 10 32 10 76 24 98 31 22 7 108 31 190 54 83 23 168 48 190 56 23 8 51 14
63 14 13 0 22 6 22 15 0 8 -9 15 -19 15 -10 0 -72 13 -137 30 -138 35 -135 34
-154 16z"/>
<path d="M0 625 l0 -625 1240 0 1240 0 0 55 0 55 1760 0 1760 0 0 515 0 515
-1760 0 -1760 0 0 55 0 55 -459 0 -459 0 -72 -115 c-39 -63 -73 -115 -75 -115
-1 0 10 49 25 110 15 60 25 112 22 115 -3 3 -333 5 -734 5 l-728 0 0 -625z
m5968 -2 l-3 -488 -1745 0 -1745 0 -3 488 -2 487 1750 0 1750 0 -2 -487z
m-5153 247 c-3 -5 -14 -10 -24 -10 -38 0 -41 -17 -41 -235 0 -223 2 -235 47
-235 13 0 23 -4 23 -10 0 -6 -52 -10 -135 -10 -83 0 -135 4 -135 10 0 6 10 10
23 10 47 0 48 2 45 241 l-3 224 -25 3 c-14 2 -29 8 -34 13 -6 5 44 9 128 9 89
0 135 -4 131 -10z m1192 -13 c48 -26 73 -64 73 -111 0 -85 -58 -135 -167 -144
l-63 -5 0 -91 c0 -98 7 -116 47 -116 13 0 23 -4 23 -10 0 -6 -50 -10 -130 -10
-80 0 -130 4 -130 10 0 6 10 10 23 10 45 0 47 12 47 235 0 223 -2 235 -47 235
-13 0 -23 5 -23 11 0 8 47 10 158 7 123 -3 164 -7 189 -21z m-747 -117 l0 -90
90 0 c89 0 90 0 90 -25 0 -25 -1 -25 -90 -25 l-90 0 0 -91 c0 -88 -1 -90 -22
-87 -22 3 -23 8 -26 91 l-3 87 -84 0 c-84 0 -85 0 -85 25 0 25 1 25 85 25 l85
0 0 90 c0 89 0 90 25 90 25 0 25 -1 25 -90z"/>
<path d="M4033 630 c-3 -11 -11 -20 -19 -20 -20 0 -44 -41 -44 -76 0 -47 30
-78 75 -78 45 0 75 31 75 78 0 38 -24 76 -49 76 -25 0 -33 11 -20 27 9 10 8
13 -1 13 -6 0 -14 -9 -17 -20z"/>
<path d="M5459 609 c-75 -27 -55 -153 24 -153 51 0 77 27 77 79 0 61 -45 94
-101 74z"/>
<path d="M4370 535 l0 -75 49 0 c59 0 76 17 76 75 0 58 -17 75 -76 75 l-49 0
0 -75z"/>
<path d="M1850 741 l0 -111 24 0 c14 0 38 11 53 24 25 22 28 31 28 85 0 69
-18 96 -73 107 l-32 7 0 -112z"/>
</g>
</svg>
