<?xml version="1.0" standalone="no"?>
<!DOCTYPE svg PUBLIC "-//W3C//DTD SVG 20010904//EN"
 "http://www.w3.org/TR/2001/REC-SVG-20010904/DTD/svg10.dtd">
<svg version="1.0" xmlns="http://www.w3.org/2000/svg"
 width="900.000000pt" height="900.000000pt" viewBox="0 0 900.000000 900.000000"
 preserveAspectRatio="xMidYMid meet">
<metadata>
Created by potrace 1.16, written by Peter Selinger 2001-2019
</metadata>
<g transform="translate(0.000000,900.000000) scale(0.100000,-0.100000)"
fill="#000000" stroke="none">
<path d="M0 4500 l0 -4500 4500 0 4500 0 0 4500 0 4500 -4500 0 -4500 0 0
-4500z m5465 2401 l0 -404 -175 -75 c-96 -40 -229 -96 -295 -124 -66 -28 -149
-63 -185 -79 -123 -54 -345 -146 -369 -154 -21 -6 -23 -5 -17 22 3 15 13 75
21 133 9 58 25 150 35 205 11 55 28 156 40 225 36 226 60 363 87 513 l27 147
415 -2 416 -3 0 -404z m-1343 -946 c21 -60 49 -141 62 -180 13 -38 72 -207
131 -375 59 -168 113 -323 120 -345 7 -22 29 -85 48 -140 20 -55 62 -176 95
-270 33 -93 92 -262 132 -375 40 -113 80 -230 90 -260 10 -30 35 -98 55 -150
20 -52 44 -116 53 -142 l16 -48 168 0 168 0 0 -50 0 -50 -595 0 -595 0 0 50 0
50 256 0 c201 0 255 3 252 13 -3 6 -22 66 -43 132 -21 66 -75 230 -120 365
l-81 245 -373 0 -373 0 -14 -40 c-33 -88 -86 -243 -100 -285 -8 -25 -25 -74
-39 -110 -35 -96 -95 -287 -95 -305 0 -13 23 -15 165 -15 l165 0 0 -50 0 -50
-395 0 -395 0 0 50 0 50 153 0 154 0 11 33 c5 17 27 75 47 127 37 96 100 270
205 570 96 271 180 510 212 600 35 98 72 202 122 345 19 55 51 145 71 200 20
55 45 125 55 155 10 30 35 100 55 155 31 86 53 152 71 203 2 7 14 12 26 10 18
-2 28 -22 60 -113z m-2707 89 c20 -15 20 -30 25 -882 l6 -867 23 -65 c60 -164
152 -229 348 -245 94 -8 217 14 280 51 63 37 120 108 146 183 22 66 22 68 27
934 l5 869 24 19 c21 17 42 19 243 19 124 0 227 -4 238 -10 10 -5 23 -24 29
-41 13 -38 14 -1617 0 -1775 -13 -156 -63 -291 -153 -411 -111 -148 -281 -246
-511 -294 -93 -20 -138 -24 -295 -23 -163 1 -198 4 -297 27 -61 14 -140 38
-175 52 -260 109 -429 326 -468 601 -6 48 -10 394 -10 950 l0 875 25 24 24 25
223 0 c183 -1 227 -3 243 -16z m4689 -16 c19 -18 166 -190 326 -383 161 -192
299 -355 308 -362 10 -7 22 -9 28 -5 5 4 148 172 317 374 169 202 319 376 334
387 25 20 38 21 305 21 l279 0 24 -25 25 -24 0 -1190 0 -1190 -24 -28 -24 -28
-209 -3 c-183 -2 -212 0 -243 15 l-35 18 -5 846 -5 846 -355 -415 c-195 -228
-365 -419 -377 -424 -12 -6 -28 -8 -37 -5 -8 3 -176 194 -373 423 l-358 418
-5 -845 c-3 -464 -6 -845 -8 -847 -1 -2 -18 -10 -37 -18 -26 -10 -82 -14 -230
-14 -204 0 -244 7 -259 45 -3 9 -6 553 -6 1208 l0 1191 22 23 c21 23 22 23
305 23 l283 0 34 -32z m-943 -3300 l74 -228 33 0 c22 0 32 -4 30 -12 -3 -9
-35 -13 -113 -13 -78 0 -110 4 -112 13 -3 8 7 12 31 12 40 0 40 -4 11 93 l-12
42 -60 3 -59 3 -18 -58 c-10 -32 -21 -64 -23 -70 -4 -9 6 -13 32 -13 25 0 35
-4 33 -12 -3 -9 -28 -13 -78 -13 -50 0 -75 4 -77 13 -3 8 6 12 25 12 l29 0 74
223 c74 224 86 254 99 240 4 -4 41 -110 81 -235z m-4051 222 c0 -5 -16 -10
-35 -10 l-35 0 0 -189 c0 -186 0 -190 24 -218 23 -26 29 -28 101 -28 72 0 78
2 101 28 24 28 24 32 24 218 l0 189 -35 0 c-19 0 -35 5 -35 10 0 6 33 10 80
10 47 0 80 -4 80 -10 0 -5 -13 -10 -30 -10 l-30 0 0 -190 c0 -121 -4 -198 -12
-214 -18 -41 -82 -66 -169 -65 -88 0 -136 15 -160 49 -16 22 -19 50 -21 220
l-3 195 -27 3 c-16 2 -28 8 -28 13 0 5 47 9 105 9 63 0 105 -4 105 -10z m2731
-222 l-1 -228 31 0 c20 0 29 -4 27 -12 -3 -8 -27 -14 -62 -16 -51 -3 -58 -1
-63 17 -5 21 -5 21 -30 1 -57 -44 -147 -11 -179 67 -22 51 -18 141 9 188 39
70 128 94 178 49 18 -17 19 -15 19 64 l0 82 -36 0 c-22 0 -33 4 -29 10 4 6 34
10 72 8 l66 -3 -2 -227z m759 2 l0 -230 26 0 c16 0 24 -5 22 -12 -3 -8 -27
-14 -62 -16 -51 -3 -58 -1 -63 17 -5 20 -5 20 -33 -1 -60 -44 -158 1 -180 81
-24 88 1 192 56 228 38 24 106 24 133 -1 l21 -19 0 81 0 82 -35 0 c-19 0 -35
5 -35 10 0 6 32 10 75 10 l75 0 0 -230z m1230 125 c0 -45 0 -45 35 -45 24 0
35 -5 35 -15 0 -10 -11 -15 -35 -15 l-36 0 3 -132 3 -133 28 -3 c18 -2 29 2
33 12 6 16 34 23 34 8 0 -14 -38 -50 -61 -57 -32 -10 -88 4 -99 25 -5 10 -10
77 -10 149 l0 130 -27 3 c-16 2 -28 8 -28 13 0 6 12 11 28 13 25 3 27 7 27 48
0 44 0 44 35 44 35 0 35 0 35 -45z m-4102 -72 c20 -22 22 -33 22 -154 l0 -129
26 0 c16 0 24 -5 22 -12 -3 -9 -30 -13 -88 -13 -58 0 -85 4 -87 13 -3 7 5 12
21 12 l27 0 -3 138 -3 137 -31 3 c-67 7 -93 -49 -94 -195 l0 -83 31 0 c20 0
29 -4 27 -12 -5 -14 -135 -23 -176 -13 -28 7 -19 25 13 25 l24 0 3 140 3 139
-30 3 c-57 6 -25 23 43 23 58 0 67 -2 66 -17 -2 -23 9 -23 30 1 33 37 118 34
154 -6z m885 23 c47 -20 78 -58 84 -105 l6 -41 -112 0 c-105 0 -111 -1 -111
-21 0 -43 23 -110 43 -124 45 -32 126 -6 142 45 7 23 35 27 35 5 0 -8 -15 -32
-34 -52 -31 -34 -39 -37 -97 -41 -55 -3 -69 0 -99 20 -48 32 -70 80 -70 151 0
62 14 99 52 134 45 43 104 53 161 29z m385 -13 c15 -21 16 -65 0 -81 -30 -30
-73 2 -61 46 4 17 1 22 -16 22 -36 0 -55 -53 -59 -172 l-4 -108 31 0 c33 0 42
-14 15 -24 -20 -8 -148 -8 -168 0 -26 10 -18 24 14 24 l30 0 0 143 0 143 -27
-1 c-14 0 -28 6 -30 13 -4 9 14 12 66 12 71 0 71 0 71 -27 l0 -27 16 22 c30
43 94 51 122 15z m225 16 c36 -10 37 -11 37 -59 0 -28 -4 -50 -9 -50 -5 0 -18
17 -28 37 -32 66 -108 71 -108 8 0 -26 6 -31 60 -52 100 -38 135 -95 100 -163
-24 -47 -67 -64 -147 -57 -37 3 -73 9 -78 12 -15 10 -13 128 3 123 6 -3 13
-16 15 -30 2 -15 14 -38 27 -52 30 -33 93 -36 119 -7 30 33 16 54 -63 91 -80
39 -101 60 -101 101 0 86 72 126 173 98z m953 -20 c22 -21 24 -30 24 -130 0
-122 9 -159 41 -159 12 0 19 -5 16 -12 -7 -20 -98 -13 -114 8 -12 16 -14 16
-33 -1 -12 -11 -41 -20 -73 -23 -45 -3 -55 -1 -75 21 -45 48 -38 132 13 159
11 7 49 19 85 27 63 15 65 17 68 49 4 41 -12 62 -47 62 -33 0 -51 -17 -51 -47
0 -25 -24 -43 -51 -36 -44 12 -9 92 46 106 44 12 127 -1 151 -24z m2014 -1
c37 -30 60 -86 60 -149 0 -58 -15 -92 -60 -134 -28 -27 -38 -30 -94 -30 -51 0
-67 4 -93 25 -44 35 -63 78 -63 145 0 79 35 137 100 164 38 16 116 5 150 -21z
m381 22 c56 -16 69 -53 69 -194 l0 -116 26 0 c16 0 24 -5 22 -12 -5 -14 -125
-23 -165 -13 -33 8 -28 25 7 25 l30 0 0 114 c0 138 -8 166 -48 166 -59 0 -90
-67 -91 -197 -1 -67 6 -83 36 -83 15 0 23 -5 21 -12 -3 -9 -31 -13 -93 -13
-62 0 -90 4 -92 13 -3 8 6 12 26 12 l31 0 0 139 0 140 -27 3 c-14 2 -28 9 -31
16 -3 9 15 12 67 12 66 0 71 -2 71 -22 0 -20 1 -20 19 -4 15 14 54 31 81 35 3
1 21 -4 41 -9z m389 -8 c40 -20 77 -78 86 -138 8 -53 -27 -136 -69 -166 -46
-33 -123 -36 -167 -6 -57 39 -80 82 -80 150 0 63 14 100 52 135 48 45 119 55
178 25z m446 -16 c22 -24 22 -24 39 -6 24 27 80 43 121 35 60 -11 74 -48 74
-192 l0 -123 26 0 c16 0 24 -5 22 -12 -3 -9 -33 -14 -91 -16 -73 -2 -87 0 -87
13 0 9 9 15 25 15 l25 0 0 128 c0 86 -4 132 -12 140 -19 19 -55 14 -85 -12
-27 -24 -28 -27 -31 -140 l-4 -116 27 0 c17 0 25 -5 23 -12 -3 -9 -30 -13 -88
-13 -58 0 -85 4 -87 13 -3 7 5 12 21 12 l26 0 0 128 c0 136 -5 152 -48 152
-63 0 -82 -43 -82 -187 l0 -93 26 0 c16 0 24 -5 22 -12 -6 -16 -177 -18 -180
-3 -2 6 9 11 25 13 l27 3 0 139 0 139 -25 3 c-52 6 -28 23 38 26 55 2 67 0 67
-13 0 -19 14 -19 30 -1 28 34 125 29 156 -8z m525 24 c59 -16 63 -29 69 -174
5 -126 6 -131 28 -134 12 -2 22 -10 22 -19 0 -13 -8 -15 -47 -9 -25 3 -55 13
-64 22 -17 15 -20 15 -45 -5 -39 -31 -107 -29 -139 4 -20 19 -25 35 -25 71 0
66 23 88 117 110 l74 18 -3 45 c-3 45 -4 46 -41 49 -38 3 -40 2 -51 -49 -9
-43 -76 -44 -76 -1 0 61 91 97 181 72z m-5971 -155 l0 -155 24 0 c30 0 42 -15
20 -24 -20 -8 -148 -8 -168 0 -26 10 -18 24 14 24 l30 0 0 143 0 143 -27 -1
c-14 0 -28 6 -30 13 -4 9 14 12 66 12 l71 0 0 -155z m250 140 c0 -10 -10 -15
-29 -15 l-29 0 37 -94 c20 -52 39 -91 42 -88 7 7 52 121 63 159 6 18 2 22 -20
25 -15 2 -29 9 -32 16 -3 9 16 12 73 12 57 0 76 -3 73 -12 -3 -7 -15 -14 -29
-16 -25 -3 -36 -25 -120 -250 -15 -38 -29 -61 -38 -60 -7 2 -40 72 -73 156
-53 136 -62 152 -83 152 -25 0 -39 12 -28 24 3 3 48 6 100 6 76 0 93 -3 93
-15z m1250 -140 l0 -155 26 0 c16 0 24 -5 22 -12 -3 -9 -31 -13 -93 -13 -62 0
-90 4 -92 13 -3 8 6 12 26 12 l31 0 0 139 0 140 -27 3 c-14 2 -28 9 -31 16 -3
9 15 12 67 12 l71 0 0 -155z m1960 21 c0 -114 3 -137 18 -156 15 -18 24 -21
49 -16 53 12 68 46 70 166 l3 105 -31 5 c-54 9 -36 25 34 28 l67 3 0 -156 0
-155 31 0 c20 0 29 -4 27 -12 -3 -8 -28 -14 -66 -16 -60 -3 -62 -2 -62 22 l0
25 -36 -24 c-50 -34 -112 -34 -151 -1 -28 24 -28 26 -31 155 -3 123 -5 130
-24 133 -12 2 -23 9 -26 16 -3 9 14 12 62 12 l66 0 0 -134z m-2220 -727 l0
-229 25 0 c16 0 25 -6 25 -15 0 -12 -14 -15 -65 -15 -52 0 -65 3 -65 16 0 14
-2 14 -22 0 -33 -23 -100 -20 -133 6 -77 60 -85 203 -17 280 35 38 107 50 147
24 l25 -16 0 75 0 75 -30 0 c-18 0 -30 5 -30 13 0 10 19 14 70 14 l70 1 0
-229z m765 219 c1 -2 17 -41 34 -88 18 -47 43 -112 56 -145 13 -33 29 -73 35
-90 l12 -30 15 35 c8 19 23 58 33 85 11 28 36 92 57 144 l38 94 74 1 c51 1 76
-3 78 -11 3 -9 -6 -13 -26 -13 l-31 0 0 -215 0 -215 30 0 c20 0 30 -5 30 -15
0 -12 -19 -15 -111 -15 -84 0 -110 3 -107 13 3 6 21 13 41 15 l35 3 2 197 c0
108 -2 194 -4 191 -3 -3 -43 -98 -89 -213 -46 -114 -87 -208 -93 -208 -8 0
-128 283 -168 397 -12 37 -14 24 -14 -160 l0 -200 36 -5 c19 -3 37 -11 40 -17
3 -10 -18 -13 -83 -13 -65 0 -86 3 -83 13 3 6 18 13 34 15 l29 3 -3 214 -3
215 -29 0 c-28 0 -38 9 -24 23 5 5 155 0 159 -5z m1135 -220 l0 -228 30 0 c20
0 30 -5 30 -15 0 -12 -14 -15 -65 -15 -51 0 -65 3 -65 15 0 8 -3 15 -6 15 -3
0 -12 -7 -20 -15 -23 -22 -105 -20 -136 5 -39 30 -58 80 -58 150 0 69 15 106
60 144 37 30 108 36 134 11 8 -8 17 -15 20 -15 3 0 6 34 6 75 l0 75 -35 0
c-31 0 -43 8 -31 21 3 2 34 4 70 5 l66 0 0 -228z m890 1 l0 -228 27 -3 c14 -2
28 -9 31 -15 3 -10 -14 -13 -62 -13 -52 0 -66 3 -66 15 0 8 -4 15 -9 15 -5 0
-14 -7 -21 -15 -8 -9 -30 -15 -60 -15 -85 0 -132 59 -132 165 1 78 22 129 64
155 39 24 110 27 128 5 21 -26 25 -17 24 57 l-1 73 -31 3 c-30 3 -39 11 -27
24 3 2 34 5 70 5 l65 0 0 -228z m-2444 51 c29 -27 54 -78 54 -110 0 -19 -6
-20 -116 -20 l-117 0 7 -42 c9 -57 36 -100 66 -108 43 -11 89 8 112 45 20 35
32 42 42 27 8 -13 -30 -69 -59 -88 -18 -12 -47 -17 -86 -17 -72 0 -104 19
-136 83 -41 80 -26 167 38 225 40 36 43 37 105 33 50 -3 69 -9 90 -28z m1147
2 c20 -21 22 -33 25 -152 3 -122 5 -129 24 -132 12 -2 23 -9 26 -15 7 -23 -92
-17 -113 6 -17 20 -17 20 -46 -1 -38 -29 -112 -29 -140 -2 -25 26 -35 86 -19
123 11 28 67 61 103 61 6 0 29 5 50 11 33 9 37 13 37 44 0 80 -94 89 -102 10
-2 -24 -8 -31 -29 -33 -38 -4 -54 20 -37 55 20 41 53 54 131 51 54 -3 72 -8
90 -26z m617 -4 c1 -30 2 -31 12 -13 17 31 39 45 73 45 42 0 67 -28 63 -72 -3
-29 -6 -33 -33 -33 -26 0 -30 4 -33 30 -5 42 -18 52 -41 31 -26 -24 -41 -90
-41 -185 0 -78 1 -80 25 -83 14 -2 25 -7 25 -13 0 -6 -37 -10 -90 -10 -87 0
-116 9 -65 21 l25 5 0 140 0 139 -30 0 c-29 0 -38 9 -23 23 3 4 35 7 70 7 l63
0 0 -32z m290 -122 l0 -155 25 -3 c14 -2 26 -7 25 -13 0 -6 -39 -11 -90 -13
-76 -2 -90 0 -90 13 0 10 10 15 30 15 l30 0 0 140 0 140 -30 0 c-20 0 -30 5
-30 15 0 12 14 15 65 15 l65 0 0 -154z"/>
<path d="M3943 5478 c-11 -35 -76 -223 -143 -418 -139 -406 -173 -510 -167
-516 2 -2 153 -3 335 -2 l330 3 -164 490 c-90 270 -165 494 -167 498 -1 5 -12
-20 -24 -55z"/>
<path d="M3657 2765 c-32 -32 -32 -208 0 -241 8 -7 29 -14 47 -14 27 0 36 6
51 33 24 46 19 185 -9 216 -22 24 -68 28 -89 6z"/>
<path d="M4412 2772 c-30 -19 -42 -141 -21 -214 17 -63 95 -68 116 -8 23 68
12 202 -19 222 -7 4 -24 8 -38 8 -14 0 -31 -4 -38 -8z"/>
<path d="M6043 2763 c-26 -39 -26 -197 0 -236 22 -34 74 -37 103 -6 16 18 19
37 19 124 0 87 -3 106 -19 124 -29 31 -81 28 -103 -6z"/>
<path d="M6845 2777 c-36 -27 -42 -201 -9 -254 17 -27 69 -31 100 -9 17 13 19
27 19 131 0 104 -2 118 -19 131 -25 18 -67 18 -91 1z"/>
<path d="M3024 1992 c-24 -16 -34 -54 -34 -131 0 -116 23 -152 86 -137 34 9
44 42 44 140 0 69 -4 88 -21 110 -20 25 -53 33 -75 18z"/>
<path d="M4921 1981 c-37 -37 -40 -185 -6 -237 24 -37 70 -33 95 9 25 40 28
163 5 206 -23 45 -62 54 -94 22z"/>
<path d="M5804 1979 c-15 -17 -20 -39 -22 -108 -3 -88 7 -124 39 -144 24 -15
64 -1 77 28 15 33 16 180 1 208 -23 43 -64 50 -95 16z"/>
</g>
</svg>
